<?xml version="1.0" encoding="UTF-8"?>
<!-- Generator: visioncortex VTracer 0.6.3 -->
<svg version="1.1" xmlns="http://www.w3.org/2000/svg" width="150" height="100" viewBox="0 0 150 100">
<path d="M0 0 C4.45 2.18 6.99 4.46 9 9 C10.47 14.66 9.83 17.9 7 23 C5.72 24.09 5.72 24.09 4.42 25.2 C1.31 28.8 1.32 31.61 1.4 36.15 C1.39 36.93 1.38 37.71 1.37 38.51 C1.35 40.99 1.36 43.46 1.38 45.94 C1.38 48.41 1.38 50.88 1.35 53.36 C1.34 54.89 1.34 56.42 1.36 57.96 C1.34 62.72 0.43 65.92 -2 70 C-2.66 70 -3.32 70 -4 70 C-4.33 70.99 -4.66 71.98 -5 73 C-5.66 73 -6.32 73 -7 73 C-7 73.66 -7 74.32 -7 75 C-7.66 75 -8.32 75 -9 75 C-9.33 75.99 -9.66 76.98 -10 78 C-10.66 78 -11.32 78 -12 78 C-12.27 78.64 -12.54 79.28 -12.81 79.94 C-14 82 -14 82 -17 83 C-17.33 83.99 -17.66 84.98 -18 86 C-18.66 86 -19.32 86 -20 86 C-20 86.66 -20 87.32 -20 88 C-20.66 88 -21.32 88 -22 88 C-22.33 88.99 -22.66 89.98 -23 91 C-23.66 91 -24.32 91 -25 91 C-25 91.66 -25 92.32 -25 93 C-26.38 94.62 -26.38 94.62 -28 96 C-28.66 96 -29.32 96 -30 96 C-30 96.66 -30 97.32 -30 98 C-30.96 98.77 -30.96 98.77 -31.94 99.56 C-34.91 103.07 -34.81 106.52 -35 111 C-36.49 111.5 -36.49 111.5 -38 112 C-38 112.99 -38 113.98 -38 115 C-37.26 114.93 -36.53 114.87 -35.77 114.8 C-32.31 115.05 -31.23 115.85 -28.75 118.25 C-22.64 125.57 -23.9 135.04 -24 144.06 C-23.99 145.9 -23.98 147.74 -23.96 149.58 C-23.94 154.05 -23.95 158.52 -24 163 C-21.24 162.48 -18.67 161.89 -16 161 C-10.85 161.79 -6.47 162.95 -3.25 167.19 C-1.07 169.74 -0.18 169.98 3.27 170.28 C5.7 170.22 8.13 170.1 10.56 169.92 C14.52 170.01 16.65 170.94 20 173 C20.82 173.87 21.65 174.73 22.5 175.62 C26.49 179.23 31.66 178.51 36.76 178.47 C40 179 40 179 42.32 181.27 C45.95 187.18 47.28 193.29 47.79 200.15 C47.9 202.09 47.9 202.09 49 204 C51.89 224.75 47.72 246.96 35 264 C32.17 267.2 29.29 270.28 26 273 C25.34 273 24.68 273 24 273 C24 273.66 24 274.32 24 275 C9.49 286.01 -5.86 289.58 -23.86 287.57 C-43.7 284.72 -58.6 272.1 -72 258 C-72.88 257.18 -72.88 257.18 -73.77 256.34 C-75 255 -75 255 -75 253 C-75.56 252.76 -76.13 252.53 -76.71 252.29 C-79.52 250.71 -81.4 248.76 -83.62 246.44 C-86.51 243.31 -86.51 243.31 -90 241 C-90 240.34 -90 239.68 -90 239 C-90.66 239 -91.32 239 -92 239 C-92 238.34 -92 237.68 -92 237 C-92.99 236.67 -93.98 236.34 -95 236 C-95 235.34 -95 234.68 -95 234 C-95.87 233.62 -95.87 233.62 -96.75 233.24 C-99.28 231.85 -100.99 230.27 -103.04 228.23 C-104.16 227.11 -104.16 227.11 -105.3 225.98 C-106.07 225.2 -106.83 224.42 -107.62 223.62 C-108.79 222.47 -108.79 222.47 -109.98 221.3 C-110.72 220.55 -111.46 219.81 -112.23 219.04 C-112.9 218.36 -113.58 217.68 -114.28 216.98 C-116.92 213.94 -117.9 211.68 -118.5 207.69 C-117.82 202.65 -115.99 200.1 -112 197 C-104.78 193.2 -96.83 193.39 -89 195 C-85.47 196.38 -82.23 198.02 -79 200 C-79 200.66 -79 201.32 -79 202 C-78.38 202.14 -77.76 202.29 -77.12 202.44 C-75 203 -75 203 -73 204 C-69.19 204.43 -67.26 204.13 -63.81 202.38 C-59.09 198.39 -57.89 194.43 -57.34 188.42 C-57.19 186.34 -57.06 184.27 -56.94 182.19 C-56.81 180.1 -56.67 178.01 -56.53 175.92 C-56.47 175 -56.42 174.08 -56.36 173.13 C-56.24 172.43 -56.12 171.72 -56 171 C-55.34 170.67 -54.68 170.34 -54 170 C-49.91 177.55 -48.1 183.43 -49 192 C-49.1 192.94 -49.19 193.88 -49.29 194.86 C-50.31 202.14 -52.51 208.01 -58.19 212.88 C-65 215.6 -70.74 216.87 -77.72 214.13 C-80.25 212.87 -82.61 211.44 -85 209.94 C-91.94 205.61 -98 204.3 -106 206 C-105.34 208.31 -104.68 210.62 -104 213 C-103.34 213 -102.68 213 -102 213 C-102 213.66 -102 214.32 -102 215 C-101.01 215.33 -100.02 215.66 -99 216 C-99 216.66 -99 217.32 -99 218 C-98.34 218 -97.68 218 -97 218 C-95.48 219.57 -95.48 219.57 -93.75 221.69 C-91.5 224.35 -89.3 226.71 -86.56 228.88 C-85.72 229.58 -84.87 230.28 -84 231 C-84 231.66 -84 232.32 -84 233 C-83.34 233 -82.68 233 -82 233 C-80.38 234.38 -80.38 234.38 -79 236 C-79 236.66 -79 237.32 -79 238 C-78.01 238.33 -77.02 238.66 -76 239 C-76 239.66 -76 240.32 -76 241 C-75.34 241 -74.68 241 -74 241 C-72.44 242.69 -70.95 244.46 -69.5 246.25 C-68.71 247.22 -67.91 248.2 -67.09 249.2 C-65 252 -65 252 -63.97 254.23 C-62.69 256.56 -61.4 256.95 -59 258 C-57.56 258.97 -56.14 259.97 -54.75 261 C-54.04 261.52 -53.34 262.03 -52.61 262.56 C-51.81 263.27 -51.81 263.27 -51 264 C-51 264.66 -51 265.32 -51 266 C-50.01 266.34 -50.01 266.34 -49 266.69 C-46.54 267.76 -44.65 268.85 -42.44 270.31 C-32.95 276.3 -24.21 278.88 -13 278.69 C-11.86 278.68 -10.72 278.67 -9.54 278.66 C-1 278.41 5.04 277.19 12 272 C13.21 271.21 14.42 270.41 15.62 269.62 C16.8 268.82 16.8 268.82 18 268 C18.66 268 19.32 268 20 268 C20 267.34 20 266.68 20 266 C20.87 265.34 21.73 264.68 22.62 264 C32.64 255.89 37.74 239.79 39.34 227.39 C40.27 218.25 40.46 209.1 39 200 C38.67 199.67 38.34 199.34 38 199 C37.77 196.97 37.55 194.94 37.38 192.91 C37.14 190.77 37.14 190.77 35 189 C32.42 188.83 32.42 188.83 30 189 C28.68 191.31 27.36 193.62 26 196 C24.33 196.04 22.67 196.04 21 196 C19.47 194.47 19.74 192.88 19.56 190.75 C19.09 185.62 19.09 185.62 17 181 C13.7 179.87 11.38 179.95 7.94 180.44 C4.25 182.4 3.14 184.57 1.27 188.22 C0 190 0 190 -2.15 190.75 C-2.76 190.83 -3.37 190.91 -4 191 C-6.98 186.93 -7.71 183.08 -8.47 178.21 C-8.84 175.81 -8.84 175.81 -11 174 C-12.91 173.68 -12.91 173.68 -15 173.75 C-15.7 173.74 -16.4 173.74 -17.12 173.73 C-19.24 173.84 -19.24 173.84 -21 176 C-21.49 178.01 -21.97 180.01 -22.43 182.02 C-23.14 184.47 -24.29 186.13 -26 188 C-29.06 187.75 -30.56 187.48 -32.65 185.17 C-34.71 180.34 -34.33 175.72 -34.22 170.53 C-34.21 169.42 -34.2 168.31 -34.2 167.16 C-34.17 163.61 -34.12 160.05 -34.06 156.5 C-34.01 152.95 -33.97 149.39 -33.94 145.84 C-33.92 143.63 -33.89 141.42 -33.85 139.21 C-33.84 137.71 -33.84 137.71 -33.82 136.17 C-33.81 135.29 -33.79 134.41 -33.78 133.5 C-34.05 130.41 -34.73 127.27 -37 125 C-41.02 124.77 -41.02 124.77 -45 125 C-51.62 131.62 -51.5 143.59 -51.67 152.37 C-51.78 156.96 -52.26 160.67 -54 165 C-56 163 -56 163 -56.23 159.22 C-56.23 157.6 -56.22 155.97 -56.2 154.34 C-56.19 153.49 -56.19 152.63 -56.19 151.74 C-56.18 149 -56.15 146.25 -56.12 143.5 C-56.11 141.65 -56.11 139.79 -56.1 137.94 C-56.08 133.29 -56.04 128.65 -56 124 C-56 123.34 -56 122.68 -56 122 C-56.78 122.99 -57.57 123.98 -58.38 125 C-59.24 125.99 -60.11 126.98 -61 128 C-61.66 128 -62.32 128 -63 128 C-63.25 128.57 -63.49 129.14 -63.74 129.73 C-65.21 132.38 -66.93 134.14 -69.1 136.26 C-69.9 137.05 -70.7 137.84 -71.53 138.65 C-72.36 139.47 -73.2 140.28 -74.06 141.12 C-75.72 142.75 -77.38 144.38 -79.04 146.01 C-79.77 146.73 -80.51 147.44 -81.27 148.18 C-83.07 149.9 -83.07 149.9 -84 152 C-84.66 152 -85.32 152 -86 152 C-86.33 152.99 -86.66 153.98 -87 155 C-87.66 155 -88.32 155 -89 155 C-89 155.66 -89 156.32 -89 157 C-95.39 161.14 -102.11 160.38 -109.5 160.26 C-114.7 160.33 -118.07 160.49 -122.1 163.98 C-123.07 164.98 -124.04 165.99 -125 167 C-128.76 168.88 -132.92 168.66 -137 168 C-140.97 165.72 -143.48 162.78 -146 159 C-146.8 153.7 -146.92 148.58 -143.88 144 C-141.27 140.97 -138.88 139.19 -135 138 C-128.63 137.94 -124 139.05 -119.38 143.56 C-118.2 144.77 -118.2 144.77 -117 146 C-112.26 148.37 -105.5 147.64 -100.49 146.35 C-93.77 143.61 -88.03 139.04 -84 133 C-83.34 133 -82.68 133 -82 133 C-82 132.34 -82 131.68 -82 131 C-81.34 131 -80.68 131 -80 131 C-79.67 130.01 -79.34 129.02 -79 128 C-78.34 128 -77.68 128 -77 128 C-76.73 127.36 -76.46 126.72 -76.19 126.06 C-75 124 -75 124 -72 123 C-72 122.34 -72 121.68 -72 121 C-71.34 120.67 -70.68 120.34 -70 120 C-70.51 116.03 -71.34 114.18 -74.32 111.51 C-74.99 110.89 -75.67 110.27 -76.37 109.63 C-77.09 108.99 -77.82 108.35 -78.56 107.69 C-80.03 106.35 -81.5 105.02 -82.96 103.68 C-83.66 103.05 -84.37 102.41 -85.09 101.76 C-87.95 99.12 -90.65 96.34 -93.32 93.52 C-99.45 87.97 -105.43 88.45 -113.31 88.44 C-114.51 88.4 -115.71 88.36 -116.94 88.33 C-123.82 88.29 -128.19 88.76 -133.35 93.51 C-136.18 96.07 -139.21 97.51 -143 98 C-148.04 97.38 -151.84 96.13 -155.5 92.56 C-156 91.72 -156.49 90.87 -157 90 C-157.41 89.4 -157.82 88.8 -158.25 88.19 C-159.95 83.24 -159.5 79.18 -157.5 74.5 C-157 73.67 -156.51 72.85 -156 72 C-155.34 72 -154.68 72 -154 72 C-153.67 71.01 -153.34 70.02 -153 69 C-148.73 66.47 -143.83 66.41 -139 67 C-135.7 68.31 -134.46 69.63 -132.62 72.6 C-130.46 75.21 -129.4 75.93 -126.02 76.55 C-122.37 76.65 -118.78 76.56 -115.12 76.38 C-112.65 76.3 -110.17 76.22 -107.7 76.15 C-106.53 76.11 -105.37 76.08 -104.17 76.05 C-95.54 75.92 -90.63 77.7 -84.12 83.63 C-83.13 84.6 -82.14 85.58 -81.16 86.57 C-80.64 87.09 -80.12 87.61 -79.58 88.15 C-78.48 89.25 -77.39 90.35 -76.29 91.45 C-74.62 93.13 -72.93 94.81 -71.24 96.49 C-70.17 97.56 -69.1 98.63 -68.04 99.7 C-67.53 100.2 -67.03 100.7 -66.51 101.22 C-63 104.77 -63 104.77 -63 107 C-61.51 107.5 -61.51 107.5 -60 108 C-60 108.66 -60 109.32 -60 110 C-59.37 110.19 -58.75 110.39 -58.1 110.59 C-57.28 110.85 -56.47 111.11 -55.62 111.38 C-54.81 111.63 -54 111.89 -53.16 112.15 C-51 113 -51 113 -49 115 C-48.01 114.67 -47.02 114.34 -46 114 C-46.23 112.29 -46.49 110.58 -46.75 108.88 C-46.96 107.45 -46.96 107.45 -47.17 105.99 C-49.01 99.34 -53.83 94.88 -58.62 90.19 C-59.21 89.6 -59.8 89.02 -60.4 88.42 C-63.42 85.34 -63.42 85.34 -67 83 C-67 82.34 -67 81.68 -67 81 C-67.66 81 -68.32 81 -69 81 C-70.33 79.64 -70.33 79.64 -71.81 77.81 C-73.74 75.47 -75.68 73.28 -77.88 71.19 C-80 69 -80 69 -80 67 C-80.66 67 -81.32 67 -82 67 C-82.01 66.37 -82.02 65.74 -82.03 65.09 C-82.08 62.21 -82.17 59.32 -82.25 56.44 C-82.26 55.45 -82.28 54.46 -82.29 53.44 C-82.53 46.42 -83.49 41.51 -88.62 36.38 C-90.59 34.41 -91.25 32.67 -92 30 C-91.42 23.01 -89.33 18.59 -84 14 C-80.15 11.65 -76.64 11.72 -72.29 12.33 C-67.39 13.77 -64.11 17.12 -61.56 21.44 C-60.47 26.41 -60.29 29.72 -62.81 34.25 C-65 37 -65 37 -66.62 38.56 C-70.13 42.23 -70.43 46.68 -70.33 51.53 C-69.73 56 -67.85 59.92 -66 64 C-65.71 64.88 -65.42 65.76 -65.12 66.67 C-63.76 69.49 -62.82 69.83 -60 71 C-58.72 71.96 -57.47 72.96 -56.25 74 C-55.64 74.52 -55.02 75.03 -54.39 75.56 C-53 77 -53 77 -53 79 C-52.34 79 -51.68 79 -51 79 C-49.34 80.68 -49.34 80.68 -47.5 82.88 C-45.71 84.99 -43.96 87.04 -42 89 C-40.06 89.13 -40.06 89.13 -38 88 C-37.09 87.01 -36.22 85.99 -35.38 84.94 C-34.59 83.97 -33.81 83 -33 82 C-32.34 82 -31.68 82 -31 82 C-31 81.34 -31 80.68 -31 80 C-29.62 78.38 -29.62 78.38 -28 77 C-27.34 77 -26.68 77 -26 77 C-26 76.34 -26 75.68 -26 75 C-24.62 73.38 -24.62 73.38 -23 72 C-22.34 72 -21.68 72 -21 72 C-20.67 71.01 -20.34 70.02 -20 69 C-19.34 69 -18.68 69 -18 69 C-18 68.34 -18 67.68 -18 67 C-17.34 67 -16.68 67 -16 67 C-15.67 66.01 -15.34 65.02 -15 64 C-14.34 64 -13.68 64 -13 64 C-11.35 58.58 -11.66 52.88 -11.59 47.27 C-11.57 45.89 -11.54 44.51 -11.49 43.13 C-10.89 33.81 -10.89 33.81 -14.9 25.83 C-15.92 24.88 -16.96 23.93 -18 23 C-20.09 19.33 -21.39 15.87 -20.51 11.65 C-19.69 9.44 -19.69 9.44 -18 6 C-17.34 6 -16.68 6 -16 6 C-15.67 5.01 -15.34 4.02 -15 3 C-10.6 -0.83 -5.54 -0.8 0 0 Z M-7 11 C-7.33 12.32 -7.66 13.64 -8 15 C-5.52 15.5 -5.52 15.5 -3 16 C-3 14.35 -3 12.7 -3 11 C-4.32 11 -5.64 11 -7 11 Z M-78 25 C-77.67 26.65 -77.34 28.3 -77 30 C-76.01 30 -75.02 30 -74 30 C-73.34 29.01 -72.68 28.02 -72 27 C-72.98 25.98 -73.98 24.98 -75 24 C-76.22 23.93 -76.22 23.93 -78 25 Z M-145 80 C-145.33 80.66 -145.66 81.32 -146 82 C-145.67 82.99 -145.34 83.98 -145 85 C-143.68 84.67 -142.36 84.34 -141 84 C-141 82.68 -141 81.36 -141 80 C-142.32 80 -143.64 80 -145 80 Z M-132 150 C-133.11 151.88 -133.11 151.88 -134 154 C-133.67 154.66 -133.34 155.32 -133 156 C-131.35 156 -129.7 156 -128 156 C-128.33 154.02 -128.66 152.04 -129 150 C-129.99 150 -130.98 150 -132 150 Z " fill="#010506" transform="translate(371,496)"/>
<path d="M0 0 C3.99 0.97 5.68 2.65 7.95 5.98 C10.11 9.89 10.27 13.28 9.9 17.7 C8.9 20.7 8.9 20.7 7.9 22.7 C7.24 22.7 6.58 22.7 5.9 22.7 C5.44 23.66 5.44 23.66 4.96 24.64 C3.9 26.7 3.9 26.7 2.9 27.7 C-9.13 29.14 -9.13 29.14 -13.24 26.14 C-13.81 25.5 -14.38 24.86 -14.97 24.2 C-18.05 20.92 -20.44 20.18 -24.95 19.96 C-31.35 19.95 -36.57 20.46 -41.71 24.61 C-43.1 25.7 -43.1 25.7 -45.1 25.7 C-45.1 26.36 -45.1 27.02 -45.1 27.7 C-46.74 29.32 -46.74 29.32 -48.91 31.14 C-51.92 33.68 -51.92 33.68 -54.73 36.43 C-56.1 37.7 -56.1 37.7 -58.1 37.7 C-58.43 38.69 -58.76 39.68 -59.1 40.7 C-59.76 40.7 -60.42 40.7 -61.1 40.7 C-61.1 41.36 -61.1 42.02 -61.1 42.7 C-61.76 42.7 -62.42 42.7 -63.1 42.7 C-63.43 43.69 -63.76 44.68 -64.1 45.7 C-64.76 45.7 -65.42 45.7 -66.1 45.7 C-66.13 49.97 -66.13 49.97 -63.6 52.83 C-61.1 55.7 -61.1 55.7 -61.1 57.7 C-60.44 57.7 -59.78 57.7 -59.1 57.7 C-57.69 59.14 -57.69 59.14 -56.04 61.14 C-53.3 64.35 -50.49 67.44 -47.54 70.45 C-46.83 71.17 -46.13 71.89 -45.41 72.62 C-40.43 77.11 -36.86 79.19 -30.1 79.45 C-28.79 79.51 -27.48 79.56 -26.13 79.61 C-24.79 79.64 -23.44 79.67 -22.1 79.7 C-20.83 79.74 -19.56 79.78 -18.25 79.82 C-9.45 80.05 -9.45 80.05 -1.1 77.7 C-0.6 76.22 -0.6 76.22 -0.1 74.7 C3.43 72.35 4.93 72.49 9.09 72.58 C10.18 72.6 11.26 72.61 12.38 72.63 C13.21 72.66 14.05 72.68 14.9 72.7 C14.9 73.36 14.9 74.02 14.9 74.7 C15.52 74.97 16.14 75.24 16.78 75.52 C18.9 76.7 18.9 76.7 20.9 79.7 C21.84 84.81 20.58 87.82 17.9 92.08 C14.69 96.37 14.69 96.37 11.8 97.6 C8.42 98.07 5.11 97.9 1.9 96.7 C1.9 96.04 1.9 95.38 1.9 94.7 C-2.46 92.93 -5.97 91.57 -10.71 91.68 C-11.62 91.69 -12.53 91.7 -13.47 91.72 C-14.44 91.73 -15.41 91.75 -16.41 91.77 C-40.38 91.93 -40.38 91.93 -49.1 85.7 C-49.1 85.04 -49.1 84.38 -49.1 83.7 C-49.74 83.43 -50.38 83.17 -51.04 82.89 C-53.1 81.7 -53.1 81.7 -54.1 78.7 C-55.42 78.01 -56.75 77.35 -58.1 76.7 C-59.45 75.53 -60.76 74.3 -62.03 73.04 C-62.76 72.31 -63.49 71.58 -64.25 70.83 C-65 70.06 -65.76 69.3 -66.54 68.52 C-67.29 67.77 -68.04 67.03 -68.81 66.26 C-80.1 54.94 -80.1 54.94 -80.1 50.7 C-80.76 50.7 -81.42 50.7 -82.1 50.7 C-83.72 48.2 -83.72 48.2 -85.1 45.7 C-84.54 45.43 -83.98 45.16 -83.4 44.88 C-75.1 40.43 -69.09 34.05 -62.65 27.32 C-60.5 25.08 -58.3 22.89 -56.1 20.7 C-55.45 20.04 -54.81 19.37 -54.15 18.68 C-53.57 18.09 -53 17.5 -52.41 16.89 C-51.83 16.29 -51.25 15.68 -50.65 15.06 C-49.1 13.7 -49.1 13.7 -47.1 13.7 C-46.77 12.71 -46.44 11.72 -46.1 10.7 C-42.87 8.55 -42.08 8.48 -38.38 8.54 C-24.56 8.62 -24.56 8.62 -12.61 2.25 C-8.52 -0.27 -4.71 -0.25 0 0 Z M-4.1 9.7 C-5.09 10.36 -6.08 11.02 -7.1 11.7 C-7.35 14.29 -7.35 14.29 -7.1 16.7 C-5.25 17.39 -5.25 17.39 -3.1 17.7 C-2.11 17.04 -1.12 16.38 -0.1 15.7 C-0.43 14.05 -0.76 12.4 -1.1 10.7 C-2.09 10.37 -3.08 10.04 -4.1 9.7 Z M4.9 81.7 C3.63 84.43 3.86 85.58 4.84 88.45 C5.19 89.2 5.54 89.94 5.9 90.7 C7.88 90.7 9.86 90.7 11.9 90.7 C13.26 87.99 12.97 85.69 12.9 82.7 C9.03 80.83 9.03 80.83 4.9 81.7 Z " fill="#010506" transform="translate(425.09765625,564.296875)"/>
<path d="M0 0 C2.16 0.36 2.16 0.36 4.73 2.11 C6.16 4.36 6.16 4.36 6.16 8.36 C6.82 8.36 7.48 8.36 8.16 8.36 C8.65 9.46 8.65 9.46 9.15 10.59 C9.81 12.05 9.81 12.05 10.48 13.54 C10.91 14.51 11.34 15.47 11.78 16.46 C13.09 19.21 14.59 21.75 16.16 24.36 C17.17 26.69 18.17 29.02 19.16 31.36 C19.82 32.35 20.48 33.34 21.16 34.36 C21.82 33.37 22.48 32.38 23.16 31.36 C23.82 31.36 24.48 31.36 25.16 31.36 C25.08 30.65 25 29.95 24.91 29.23 C25.25 25.39 26.97 23.49 29.16 20.36 C30.2 18.04 31.19 15.7 32.16 13.36 C33.46 10.67 34.81 8.01 36.16 5.36 C36.49 4.64 36.82 3.92 37.16 3.18 C38.16 1.36 38.16 1.36 40.16 0.36 C41.83 0.23 43.5 0.18 45.16 0.17 C46.05 0.15 46.94 0.14 47.85 0.12 C50.16 0.36 50.16 0.36 52.16 2.36 C52.41 4.68 52.41 4.68 52.41 7.62 C52.41 9.26 52.41 9.26 52.42 10.94 C52.41 12.13 52.4 13.32 52.39 14.55 C52.39 15.76 52.39 16.98 52.39 18.23 C52.39 20.8 52.38 23.38 52.37 25.95 C52.35 29.9 52.35 33.86 52.35 37.81 C52.34 40.31 52.34 42.8 52.33 45.3 C52.33 46.49 52.33 47.68 52.33 48.91 C52.32 50 52.32 51.1 52.31 52.22 C52.3 53.68 52.3 53.68 52.3 55.16 C52.16 57.36 52.16 57.36 51.16 58.36 C49.48 58.43 47.79 58.44 46.1 58.42 C45.18 58.41 44.26 58.4 43.32 58.39 C42.61 58.38 41.9 58.37 41.16 58.36 C39.69 55.4 39.94 52.67 39.85 49.38 C39.83 48.69 39.81 48.01 39.78 47.3 C39.72 45.11 39.66 42.92 39.6 40.73 C39.56 39.25 39.51 37.76 39.47 36.28 C39.36 32.64 39.26 29 39.16 25.36 C38.69 26.31 38.21 27.26 37.72 28.24 C36.82 30.05 35.91 31.86 35 33.67 C33.47 36.74 31.94 39.81 30.43 42.89 C29.91 43.95 29.39 45.01 28.85 46.11 C28.38 47.07 27.91 48.03 27.43 49.03 C26.16 51.36 26.16 51.36 24.16 53.36 C21.04 53.48 21.04 53.48 18.16 53.36 C17.83 52.37 17.5 51.38 17.16 50.36 C16.5 50.36 15.84 50.36 15.16 50.36 C14.87 49.7 14.58 49.05 14.28 48.37 C11.47 42.11 8.48 35.97 5.3 29.89 C4.16 27.36 4.16 27.36 4.16 24.36 C3.5 24.36 2.84 24.36 2.16 24.36 C2.14 25.35 2.11 26.34 2.09 27.37 C1.99 31.05 1.89 34.72 1.79 38.4 C1.75 39.99 1.71 41.59 1.67 43.18 C1.61 45.47 1.55 47.75 1.48 50.04 C1.46 51.11 1.46 51.11 1.43 52.21 C1.28 57.24 1.28 57.24 0.16 58.36 C-1.33 58.45 -2.84 58.49 -4.34 58.48 C-5.15 58.48 -5.97 58.49 -6.8 58.49 C-8.84 58.36 -8.84 58.36 -9.84 57.36 C-9.95 55.68 -9.99 54.01 -10 52.33 C-10.01 51.26 -10.02 50.19 -10.03 49.09 C-10.03 47.92 -10.03 46.75 -10.04 45.55 C-10.04 44.36 -10.05 43.17 -10.06 41.94 C-10.07 39.42 -10.07 36.9 -10.08 34.37 C-10.09 30.5 -10.12 26.64 -10.15 22.77 C-10.15 20.32 -10.16 17.87 -10.16 15.43 C-10.18 13.68 -10.18 13.68 -10.2 11.9 C-10.2 10.83 -10.2 9.75 -10.19 8.64 C-10.2 7.69 -10.2 6.74 -10.2 5.76 C-9.3 -0.16 -5.08 -0.17 0 0 Z " fill="#010506" transform="translate(534.8359375,579.64453125)"/>
<path d="M0 0 C3.43 1.32 4.63 2.56 6.11 5.89 C6.47 6.68 6.83 7.47 7.2 8.27 C7.57 9.11 7.93 9.95 8.31 10.81 C9.1 12.54 9.88 14.26 10.67 15.98 C11.06 16.83 11.45 17.68 11.85 18.55 C14.33 23.83 17.16 28.91 20 34 C22.07 31.37 23.68 28.84 25.09 25.8 C25.46 25.01 25.83 24.22 26.21 23.4 C26.79 22.15 26.79 22.15 27.38 20.88 C28.18 19.17 28.98 17.46 29.78 15.75 C31.06 13.02 32.33 10.29 33.59 7.56 C34.02 6.68 34.44 5.79 34.88 4.88 C35.4 3.76 35.4 3.76 35.93 2.62 C37 1 37 1 40 0 C41.56 -0.07 43.13 -0.09 44.69 -0.06 C45.9 -0.05 45.9 -0.05 47.14 -0.04 C48.06 -0.02 48.06 -0.02 49 0 C50.87 3.19 51.25 5.52 51.24 9.2 C51.25 10.75 51.25 10.75 51.25 12.33 C51.25 13.44 51.24 14.55 51.23 15.7 C51.23 16.84 51.23 17.98 51.23 19.16 C51.23 21.58 51.22 23.99 51.21 26.41 C51.19 30.12 51.19 33.83 51.19 37.54 C51.18 39.88 51.17 42.23 51.17 44.57 C51.17 45.68 51.17 46.8 51.16 47.95 C51.16 48.98 51.15 50 51.15 51.06 C51.14 52.42 51.14 52.42 51.13 53.81 C51 56 51 56 50 58 C48.54 58.05 47.08 58.09 45.62 58.12 C44.81 58.15 44 58.17 43.16 58.2 C41 58 41 58 39 56 C38.68 52.93 38.68 52.93 38.59 49.02 C38.57 48.34 38.55 47.65 38.53 46.95 C38.47 44.76 38.42 42.57 38.38 40.38 C38.34 38.89 38.3 37.41 38.26 35.92 C38.16 32.28 38.08 28.64 38 25 C37.19 26.6 36.37 28.21 35.56 29.81 C35.11 30.71 34.66 31.6 34.19 32.52 C32.92 35.04 32.92 35.04 32 38 C31.34 38 30.68 38 30 38 C29.92 38.66 29.84 39.32 29.75 40 C28.55 44.82 26.53 49.47 23 53 C20.12 53.5 20.12 53.5 17 53 C13.28 48.24 10.86 42.83 8.31 37.38 C7.91 36.53 7.51 35.68 7.09 34.81 C5.4 31.23 3.85 27.89 3 24 C2.34 24 1.68 24 1 24 C1.01 24.99 1.01 25.99 1.02 27.01 C1.03 30.69 1.05 34.37 1.05 38.04 C1.06 39.64 1.07 41.23 1.08 42.83 C1.09 45.11 1.09 47.4 1.1 49.68 C1.1 50.4 1.11 51.12 1.11 51.86 C1.11 53.57 1.06 55.29 1 57 C0 58 0 58 -2.03 58.13 C-2.85 58.13 -3.66 58.13 -4.5 58.12 C-5.31 58.13 -6.13 58.13 -6.97 58.13 C-9 58 -9 58 -10 57 C-10.09 55.25 -10.12 53.5 -10.11 51.75 C-10.11 50.62 -10.11 49.5 -10.11 48.35 C-10.11 47.13 -10.1 45.91 -10.1 44.65 C-10.1 43.41 -10.09 42.17 -10.09 40.89 C-10.09 37.58 -10.08 34.28 -10.07 30.97 C-10.06 27.6 -10.05 24.23 -10.05 20.86 C-10.04 14.24 -10.02 7.62 -10 1 C-6.86 -0.57 -3.43 -0.38 0 0 Z " fill="#010506" transform="translate(964,580)"/>
<path d="M0 0 C1.71 -0.04 1.71 -0.04 3.46 -0.07 C12.36 -0.1 19.18 1.48 26.56 6.5 C28.44 8.38 28.44 8.38 28.44 10.38 C29.1 10.38 29.76 10.38 30.44 10.38 C32.24 17.68 33.26 24.21 30.44 31.38 C28.72 34.03 26.89 36.36 24.44 38.38 C23.78 38.38 23.12 38.38 22.44 38.38 C24.44 43.6 26.98 47.77 30.33 52.26 C31.44 54.38 31.44 54.38 31.11 56.64 C30.89 57.22 30.67 57.79 30.44 58.38 C26.73 58.66 23.14 58.82 19.44 58.38 C16.76 55.55 16.44 54.24 16.44 50.38 C15.78 50.38 15.12 50.38 14.44 50.38 C13.12 48.07 11.8 45.75 10.44 43.38 C6.15 43.38 1.86 43.38 -2.56 43.38 C-2.71 45.48 -2.85 47.58 -3 49.75 C-3.44 56.12 -3.44 56.12 -4.56 58.38 C-7.86 58.38 -11.16 58.38 -14.56 58.38 C-16.77 52.19 -16.79 46.57 -16.64 40.04 C-16.63 38.97 -16.61 37.9 -16.59 36.79 C-16.55 34.53 -16.5 32.28 -16.45 30.02 C-16.37 26.56 -16.33 23.09 -16.28 19.63 C-16.24 17.43 -16.19 15.24 -16.14 13.04 C-16.13 12 -16.12 10.96 -16.11 9.89 C-16.08 8.93 -16.05 7.98 -16.03 6.99 C-16.01 6.14 -15.99 5.3 -15.97 4.43 C-14.7 -1.92 -4.86 0.01 0 0 Z M-3.56 12.38 C-3.56 18.64 -3.56 24.91 -3.56 31.38 C-0.88 31.46 1.8 31.54 4.56 31.62 C5.4 31.66 6.23 31.7 7.09 31.74 C12.35 31.81 15.26 30.84 19.44 27.38 C21.39 24.83 21.45 23.67 21.31 20.44 C20.28 16.83 19.17 14.96 16.44 12.38 C11.15 10.66 1.51 9.84 -3.56 12.38 Z " fill="#010506" transform="translate(681.5625,579.625)"/>
<path d="M0 0 C2.46 -0.39 2.46 -0.39 5.53 -0.4 C6.65 -0.4 7.77 -0.41 8.93 -0.41 C10.11 -0.4 11.29 -0.39 12.5 -0.38 C13.65 -0.39 14.79 -0.4 15.98 -0.41 C25.43 -0.38 34.48 0.48 41.59 7.27 C45.87 12.54 46.63 18.42 46 25 C44.85 28.68 43.14 31.79 41 35 C40.34 35 39.68 35 39 35 C39 35.66 39 36.32 39 37 C38.01 37.5 38.01 37.5 37 38 C37.46 43.07 38.97 45.74 42.12 49.69 C44.38 52.51 44.38 52.51 46 55 C45.67 55.99 45.34 56.98 45 58 C41.04 58 37.08 58 33 58 C32.67 56.35 32.34 54.7 32 53 C31.34 53 30.68 53 30 53 C27.96 50.09 27 48.6 27 45 C26.34 45 25.68 45 25 45 C24.67 44.34 24.34 43.68 24 43 C19.71 43 15.42 43 11 43 C10.94 44 10.88 45 10.82 46.03 C10.73 47.32 10.65 48.61 10.56 49.94 C10.48 51.23 10.4 52.51 10.32 53.84 C10 57 10 57 9 58 C7.31 58.07 5.62 58.08 3.94 58.06 C3.02 58.05 2.1 58.04 1.15 58.04 C0.44 58.02 -0.27 58.01 -1 58 C-2.25 55.49 -2.13 53.76 -2.15 50.96 C-2.15 49.9 -2.16 48.85 -2.16 47.77 C-2.17 46.63 -2.17 45.49 -2.17 44.32 C-2.17 43.15 -2.17 41.98 -2.18 40.78 C-2.18 38.31 -2.19 35.84 -2.19 33.37 C-2.19 29.58 -2.21 25.79 -2.22 22.01 C-2.23 19.61 -2.23 17.21 -2.23 14.82 C-2.24 13.68 -2.24 12.54 -2.25 11.37 C-2.25 10.31 -2.25 9.26 -2.24 8.17 C-2.25 6.78 -2.25 6.78 -2.25 5.36 C-2 3 -2 3 0 0 Z M10 12 C9.91 13.42 9.89 14.84 9.9 16.25 C9.91 17.11 9.91 17.96 9.91 18.84 C9.92 19.74 9.93 20.64 9.94 21.56 C9.94 22.46 9.95 23.37 9.95 24.29 C9.96 26.53 9.98 28.76 10 31 C12.92 31.05 15.83 31.09 18.75 31.12 C19.58 31.14 20.4 31.16 21.25 31.18 C22.05 31.18 22.85 31.19 23.67 31.2 C24.77 31.21 24.77 31.21 25.89 31.23 C28.34 30.96 29.91 30.29 32 29 C33.67 26.16 34.53 23.25 35 20 C33.79 16.48 32.61 14.61 30 12 C19.43 9.85 19.43 9.85 10 12 Z " fill="#010506" transform="translate(894,580)"/>
<path d="M0 0 C3.61 2.84 5.12 6.93 7 11 C7.3 11.64 7.61 12.28 7.92 12.94 C9.45 16.27 10 18.26 10 22 C10.66 22 11.32 22 12 22 C12.73 23.75 13.46 25.5 14.19 27.25 C14.64 28.34 15.1 29.43 15.57 30.55 C16.5 32.79 17.42 35.02 18.34 37.26 C20.87 43.41 20.87 43.41 23.81 49.38 C25.2 52.43 25.24 54.68 25 58 C21.37 58 17.74 58 14 58 C13.67 57.22 13.35 56.44 13.01 55.63 C12.57 54.62 12.14 53.61 11.69 52.56 C11.26 51.55 10.83 50.54 10.39 49.5 C9.2 46.69 9.2 46.69 6 46 C4.15 45.92 2.3 45.89 0.46 45.9 C-1.15 45.91 -1.15 45.91 -2.79 45.91 C-3.91 45.92 -5.03 45.93 -6.19 45.94 C-7.88 45.94 -7.88 45.94 -9.62 45.95 C-12.41 45.96 -15.21 45.98 -18 46 C-18.2 47.14 -18.2 47.14 -18.41 48.3 C-19.17 51.76 -20.44 55.44 -23 58 C-24.69 58.07 -26.38 58.08 -28.06 58.06 C-28.98 58.05 -29.9 58.04 -30.85 58.04 C-31.56 58.02 -32.27 58.01 -33 58 C-34.27 54.19 -33.51 53.19 -31.94 49.56 C-31.47 48.49 -31.01 47.42 -30.53 46.32 C-29.07 43.15 -27.53 40.04 -25.94 36.94 C-23.57 32.31 -21.76 27.7 -20.07 22.8 C-18.48 18.62 -16.43 14.71 -14.39 10.75 C-13.23 8.46 -12.21 6.19 -11.25 3.81 C-9.1 -1.02 -4.84 -0.8 0 0 Z M-5 15 C-5.96 17.21 -6.92 19.42 -7.88 21.62 C-8.28 22.55 -8.28 22.55 -8.69 23.5 C-10.32 27.28 -11.76 31.07 -13 35 C-10 36.5 -7.21 36.09 -3.88 36.06 C-2.59 36.05 -1.31 36.04 0.01 36.04 C1 36.02 1.98 36.01 3 36 C4.37 31.89 2.83 29.31 1.25 25.5 C0.98 24.82 0.72 24.15 0.45 23.45 C-0.92 20.08 -2.11 17.3 -5 15 Z " fill="#010506" transform="translate(856,580)"/>
<path d="M0 0 C5.79 2.89 8.02 13.65 10.04 19.41 C11.15 22.4 12.53 25.16 14.01 27.99 C15.1 30.2 15.99 32.45 16.88 34.75 C18.81 39.76 21.25 44.43 23.83 49.14 C25.13 52.31 25.22 54.61 25 58 C21.37 58 17.74 58 14 58 C13.67 56.35 13.34 54.7 13 53 C12.34 53 11.68 53 11 53 C11 51.35 11 49.7 11 48 C10.34 48 9.68 48 9 48 C9 47.34 9 46.68 9 46 C0.09 46 -8.82 46 -18 46 C-18.99 48.97 -19.98 51.94 -21 55 C-24 58 -24 58 -26.48 58.29 C-27.37 58.26 -28.27 58.22 -29.19 58.19 C-30.09 58.16 -30.99 58.13 -31.92 58.11 C-32.61 58.07 -33.29 58.04 -34 58 C-34 54.38 -33.82 53.04 -32.5 49.88 C-32.14 49.02 -31.79 48.16 -31.42 47.28 C-28.34 40.16 -25.18 33.08 -22 26 C-21.34 26 -20.68 26 -20 26 C-20.08 25.32 -20.16 24.64 -20.25 23.94 C-19.97 20.67 -18.85 18.78 -17.14 16.03 C-15.83 13.69 -14.93 11.32 -14 8.81 C-10.9 0.97 -8.32 -0.67 0 0 Z M-5 16 C-7.19 19.44 -8.81 22.79 -10.19 26.62 C-10.53 27.57 -10.88 28.51 -11.23 29.48 C-12.15 32.04 -12.15 32.04 -12 35 C-4.46 36.08 -4.46 36.08 3 35 C3.56 30.53 2.07 27.76 0.02 23.93 C-1 22 -1 22 -2.12 19.06 C-2.81 16.82 -2.81 16.82 -5 16 Z " fill="#010506" transform="translate(631,580)"/>
<path d="M0 0 C1.77 1.64 1.77 1.64 3 3 C2.34 5.31 1.68 7.62 1 10 C-4.53 11.26 -4.53 11.26 -6.72 10.06 C-9.97 8.55 -13.23 8.53 -16.75 8.38 C-17.45 8.34 -18.14 8.3 -18.86 8.26 C-20.58 8.16 -22.29 8.08 -24 8 C-24.66 9.98 -25.32 11.96 -26 14 C-25.01 14.33 -24.02 14.66 -23 15 C-23 15.66 -23 16.32 -23 17 C-21.72 17.25 -20.44 17.5 -19.12 17.75 C-9.92 19.82 -1.47 22.68 3.88 30.88 C5.45 35.25 5.97 38.64 4.16 43.05 C1.22 48.33 -2.44 51.56 -8 54 C-11.39 54.63 -14.63 54.61 -18.06 54.5 C-18.92 54.5 -19.78 54.51 -20.67 54.51 C-26.16 54.42 -30.1 53.5 -35 51 C-35 50.34 -35 49.68 -35 49 C-35.93 48.91 -35.93 48.91 -36.88 48.81 C-39 48 -39 48 -40.44 45.75 C-41 43 -41 43 -39.94 40.25 C-38 38 -38 38 -35.69 36.94 C-31.9 37.03 -30.02 38.82 -27 41 C-23.46 42.26 -19.98 42.1 -16.25 42.06 C-15.08 42.05 -13.91 42.04 -12.7 42.04 C-11.81 42.02 -10.92 42.01 -10 42 C-9.67 38.63 -9.67 38.63 -10 35 C-13.01 32.02 -16.36 31.12 -20.38 30 C-27.19 28.08 -33.07 26.25 -37.09 20.16 C-39.26 15.02 -38.8 9.31 -37 4.12 C-27.33 -6.14 -11.97 -6.91 0 0 Z " fill="#010506" transform="translate(508,584)"/>
<path d="M0 0 C0.77 -0 1.53 -0.01 2.32 -0.01 C3.94 -0.02 5.55 -0.02 7.17 -0.01 C9.65 -0.01 12.12 -0.04 14.6 -0.06 C16.17 -0.06 17.74 -0.06 19.31 -0.06 C20.42 -0.08 20.42 -0.08 21.56 -0.09 C24.51 -0.06 26.64 -0.04 29.15 1.6 C30.91 4.58 29.97 7.1 29.16 10.3 C25.81 12.53 24.74 12.54 20.83 12.5 C19.29 12.49 19.29 12.49 17.72 12.48 C16.64 12.46 15.57 12.44 14.47 12.43 C13.39 12.42 12.3 12.41 11.19 12.4 C8.51 12.37 5.83 12.34 3.16 12.3 C3.16 16.26 3.16 20.22 3.16 24.3 C4.72 24.34 6.29 24.38 7.9 24.41 C9.94 24.48 11.99 24.55 14.03 24.61 C15.58 24.65 15.58 24.65 17.16 24.68 C18.15 24.72 19.13 24.75 20.15 24.79 C21.06 24.82 21.97 24.84 22.91 24.87 C23.65 25.01 24.39 25.15 25.16 25.3 C27.45 28.74 27.42 30.27 27.16 34.3 C26.16 35.3 26.16 35.3 23.84 35.41 C22.84 35.41 21.84 35.4 20.81 35.4 C19.73 35.4 18.65 35.39 17.54 35.39 C16.4 35.38 15.26 35.37 14.09 35.36 C12.95 35.36 11.81 35.35 10.64 35.35 C7.81 35.34 4.98 35.32 2.16 35.3 C2.17 35.93 2.18 36.55 2.19 37.2 C2.23 40.02 2.26 42.85 2.28 45.68 C2.31 47.15 2.31 47.15 2.33 48.66 C2.34 49.6 2.34 50.54 2.35 51.51 C2.36 52.38 2.37 53.25 2.38 54.15 C2.16 56.3 2.16 56.3 0.16 58.3 C-1.94 58.57 -1.94 58.57 -4.34 58.55 C-5.14 58.56 -5.93 58.56 -6.75 58.57 C-8.84 58.3 -8.84 58.3 -10.84 56.3 C-11.1 54.02 -11.1 54.02 -11.12 51.15 C-11.13 50.07 -11.14 49 -11.15 47.89 C-11.15 46.73 -11.15 45.56 -11.14 44.36 C-11.15 43.17 -11.15 41.98 -11.16 40.75 C-11.16 38.23 -11.16 35.71 -11.16 33.19 C-11.16 29.32 -11.18 25.45 -11.21 21.57 C-11.21 19.13 -11.21 16.68 -11.21 14.24 C-11.22 13.07 -11.23 11.91 -11.23 10.71 C-11.23 9.63 -11.22 8.56 -11.22 7.45 C-11.22 6.5 -11.22 5.56 -11.22 4.58 C-11.09 3.83 -10.97 3.07 -10.84 2.3 C-7.14 -0.17 -4.28 -0.01 0 0 Z " fill="#010506" transform="translate(788.84375,579.69921875)"/>
<path d="M0 0 C1.28 -0.01 1.28 -0.01 2.59 -0.02 C3.97 -0.01 3.97 -0.01 5.37 -0.01 C6.79 -0.01 6.79 -0.01 8.24 -0.01 C10.24 -0.01 12.23 -0.01 14.23 -0 C17.3 0.01 20.36 -0 23.43 -0.01 C25.37 -0.01 27.31 -0.01 29.25 -0.01 C30.17 -0.01 31.09 -0.01 32.04 -0.02 C32.89 -0.01 33.74 -0.01 34.62 0 C35.37 0 36.12 0 36.89 0 C38.74 0.26 38.74 0.26 40.74 2.26 C40.99 5.76 40.99 5.76 40.74 9.26 C37.81 12.19 34.56 11.72 30.62 11.88 C29.86 11.92 29.11 11.96 28.33 12 C26.47 12.1 24.61 12.18 22.74 12.26 C22.75 12.82 22.75 13.38 22.75 13.96 C22.77 19.78 22.79 25.61 22.8 31.43 C22.8 33.61 22.81 35.78 22.82 37.96 C22.83 41.08 22.84 44.2 22.84 47.32 C22.85 48.3 22.85 49.28 22.86 50.28 C22.86 51.64 22.86 51.64 22.86 53.01 C22.86 53.81 22.86 54.61 22.86 55.43 C22.74 57.26 22.74 57.26 21.74 58.26 C20.08 58.36 18.41 58.39 16.74 58.38 C15.38 58.39 15.38 58.39 13.99 58.39 C11.74 58.26 11.74 58.26 10.74 57.26 C10.62 55.85 10.57 54.43 10.54 53.01 C10.52 52.11 10.5 51.21 10.48 50.28 C10.46 49.31 10.44 48.33 10.43 47.32 C10.41 46.32 10.39 45.32 10.36 44.29 C10.3 41.1 10.24 37.9 10.18 34.7 C10.14 32.53 10.09 30.37 10.05 28.21 C9.94 22.89 9.84 17.57 9.74 12.26 C8.68 12.21 7.62 12.16 6.53 12.11 C5.14 12.04 3.76 11.96 2.37 11.88 C1.67 11.85 0.97 11.82 0.25 11.79 C-5.03 11.49 -5.03 11.49 -7.26 9.26 C-7.57 5.76 -7.57 5.76 -7.26 2.26 C-4.16 0.2 -3.5 0.01 0 0 Z " fill="#010506" transform="translate(728.256103515625,579.7412109375)"/>
<path d="M0 0 C4.25 3.64 5.83 6.23 6.38 11.81 C6.24 17.11 4.11 20.94 0.29 24.67 C-4.54 27.47 -10.62 26.69 -16 26 C-19.25 23.69 -19.25 23.69 -21 21 C-21.66 20.01 -22.32 19.02 -23 18 C-23.69 13.01 -24.31 7.44 -21.87 2.88 C-15.54 -3.78 -7.98 -3.99 0 0 Z M-9 8 C-11.28 10.82 -11.28 10.82 -11 14 C-8.52 14.5 -8.52 14.5 -6 15 C-5.67 13.35 -5.34 11.7 -5 10 C-6.32 9.34 -7.64 8.68 -9 8 Z " fill="#010506" transform="translate(271,602)"/>
<path d="M0 0 C0.95 0.74 1.9 1.49 2.88 2.25 C3.64 2.81 4.4 3.36 5.19 3.94 C7.77 7.48 8.06 10.93 7.88 15.25 C6.33 20.41 4.44 24.3 -0.12 27.25 C-5.52 28.11 -11.33 28.72 -16.3 26.11 C-19.54 23.06 -21.32 19.64 -22.12 15.25 C-21.82 9.54 -20.27 6.01 -16.81 1.56 C-11.73 -2.39 -5.54 -3.1 0 0 Z M-11.12 11.25 C-10.8 14.55 -10.5 15.87 -8.12 18.25 C-5.17 18.54 -5.17 18.54 -3.38 17 C-1.88 15.32 -1.88 15.32 -2.38 13.19 C-3.1 11.21 -3.1 11.21 -4.12 9.25 C-8.08 8.9 -8.08 8.9 -11.12 11.25 Z " fill="#010506" transform="translate(337.125,531.75)"/>
<path d="M0 0 C3.39 2.21 6.14 4.18 7.88 7.88 C8.6 12.59 8.99 17.03 6.47 21.21 C5.94 21.76 5.42 22.31 4.88 22.88 C4.21 22.88 3.56 22.88 2.88 22.88 C2.88 23.53 2.88 24.2 2.88 24.88 C-0.5 27.61 -3.64 28.53 -8 28.36 C-12.18 27.41 -15.19 24.92 -18.12 21.88 C-20.81 17.05 -20.36 12.13 -19.12 6.88 C-17.69 4.31 -17.69 4.31 -16.12 2.88 C-15.46 2.88 -14.81 2.88 -14.12 2.88 C-14.12 2.22 -14.12 1.55 -14.12 0.88 C-9.53 -2.07 -5.02 -1.81 0 0 Z M-6.12 9.88 C-6.79 10.53 -7.44 11.2 -8.12 11.88 C-8.12 13.2 -8.12 14.51 -8.12 15.88 C-6.48 15.88 -4.82 15.88 -3.12 15.88 C-2.8 14.88 -2.46 13.89 -2.12 12.88 C-2.79 11.88 -3.44 10.89 -4.12 9.88 C-4.79 9.88 -5.44 9.88 -6.12 9.88 Z " fill="#010506" transform="translate(405.125,600.125)"/>
<path d="M0 0 C1.68 0.29 3.34 0.62 5 1 C6.19 4.43 5.8 6.38 4.56 9.75 C4.13 10.95 4.13 10.95 3.69 12.17 C3.46 12.78 3.24 13.38 3 14 C2.34 14 1.68 14 1 14 C0.67 14.99 0.34 15.98 0 17 C-0.66 17 -1.32 17 -2 17 C-2 17.66 -2 18.32 -2 19 C-2.66 19 -3.32 19 -4 19 C-4.14 19.78 -4.29 20.57 -4.44 21.38 C-5 24 -5 24 -6 26 C-6.15 27.81 -6.25 29.63 -6.32 31.45 C-6.36 32.52 -6.4 33.6 -6.44 34.71 C-6.5 36.4 -6.5 36.4 -6.56 38.12 C-6.61 39.26 -6.65 40.4 -6.69 41.57 C-6.8 44.38 -6.9 47.19 -7 50 C-10 51 -10 51 -12.5 49.81 C-15.03 47.98 -16.38 46.66 -18 44 C-18.39 41.31 -18.39 41.31 -18.4 38.28 C-18.4 37.18 -18.41 36.09 -18.41 34.96 C-18.4 33.82 -18.39 32.68 -18.38 31.5 C-18.39 30.36 -18.4 29.22 -18.41 28.04 C-18.41 26.95 -18.4 25.85 -18.4 24.72 C-18.4 23.72 -18.39 22.72 -18.39 21.69 C-17.94 18.62 -17.15 17.21 -15 15 C-14.34 15 -13.68 15 -13 15 C-13 14.34 -13 13.68 -13 13 C-12.34 13 -11.68 13 -11 13 C-10.67 12.01 -10.34 11.02 -10 10 C-9.34 10 -8.68 10 -8 10 C-8 9.34 -8 8.68 -8 8 C-7.34 8 -6.68 8 -6 8 C-5.67 7.01 -5.34 6.02 -5 5 C-4.34 5 -3.68 5 -3 5 C-2.69 4.36 -2.38 3.72 -2.06 3.06 C-1 1 -1 1 0 0 Z " fill="#010506" transform="translate(307,647)"/>
<path d="M0 0 C2.62 0.31 2.62 0.31 4.44 2.12 C5.62 4.31 5.62 4.31 5.62 7.31 C6.28 7.31 6.95 7.31 7.62 7.31 C9.83 10.19 11.67 13.26 13.62 16.31 C13.96 11.36 14.28 6.41 14.62 1.31 C16.27 0.98 17.92 0.65 19.62 0.31 C20.96 2.97 20.74 5 20.72 7.98 C20.72 9.1 20.72 10.22 20.71 11.38 C20.7 12.55 20.7 13.73 20.69 14.94 C20.68 16.12 20.68 17.3 20.67 18.52 C20.66 21.45 20.65 24.38 20.62 27.31 C18.98 27.97 17.33 28.63 15.62 29.31 C11.78 25.89 9.02 21.84 6.62 17.31 C6.62 16.65 6.62 15.99 6.62 15.31 C5.97 15.31 5.3 15.31 4.62 15.31 C4.62 14.65 4.62 13.99 4.62 13.31 C3.97 13.31 3.3 13.31 2.62 13.31 C2.62 18.26 2.62 23.21 2.62 28.31 C0.98 28.64 -0.67 28.97 -2.38 29.31 C-4.18 27.51 -3.51 24.77 -3.51 22.34 C-3.51 21.13 -3.51 19.92 -3.51 18.68 C-3.51 17.4 -3.5 16.13 -3.5 14.81 C-3.5 13.54 -3.51 12.26 -3.51 10.95 C-3.51 9.74 -3.51 8.53 -3.51 7.28 C-3.51 6.16 -3.51 5.04 -3.5 3.89 C-3.34 0.54 -3.3 0.43 0 0 Z " fill="#010506" transform="translate(609.375,680.6875)"/>
<path d="M0 0 C2.92 2.09 3.81 3.29 4.75 6.75 C4.87 7.86 4.87 7.86 5 9 C3.25 9.75 3.25 9.75 1 10 C0.38 9.36 -0.24 8.72 -0.88 8.06 C-2.89 5.7 -2.89 5.7 -6.12 5.56 C-7.55 5.78 -7.55 5.78 -9 6 C-11.97 10.45 -11.62 14.78 -11 20 C-9.62 22.89 -9.62 22.89 -7 24 C-3.8 23.86 -3.8 23.86 -1 23 C-1 21.68 -1 20.36 -1 19 C-3.48 18.01 -3.48 18.01 -6 17 C-5.34 15.68 -4.68 14.36 -4 13 C2.62 12.75 2.62 12.75 6 15 C6.71 18.39 6.55 21.6 6 25 C4.19 27.62 4.19 27.62 1 29 C-4.11 29.72 -8.4 29.86 -13 27.38 C-17.03 22.59 -18.59 18.52 -18.35 12.31 C-17.55 6.98 -15.57 3.18 -11.25 -0.06 C-6.87 -1.33 -4.45 -1.08 0 0 Z " fill="#010506" transform="translate(765,681)"/>
<path d="M0 0 C1.65 0 3.3 0 5 0 C5 3.96 5 7.92 5 12 C10.45 11.5 10.45 11.5 16 11 C16.33 7.7 16.66 4.4 17 1 C18.66 0.62 20.32 0.29 22 0 C23 1 23 1 23.11 3.59 C23.11 4.72 23.1 5.84 23.1 7 C23.09 8.22 23.09 9.43 23.09 10.69 C23.08 11.96 23.07 13.24 23.06 14.56 C23.06 15.85 23.05 17.13 23.05 18.45 C23.04 21.63 23.02 24.82 23 28 C21.34 28.38 19.68 28.71 18 29 C15.63 26.63 16.24 19.96 16 17 C12.37 16.67 8.74 16.34 5 16 C5 19.96 5 23.92 5 28 C3.68 28.33 2.36 28.66 1 29 C-1 27 -1 27 -1.24 24.51 C-1.24 23.49 -1.23 22.46 -1.23 21.41 C-1.23 20.29 -1.23 19.18 -1.22 18.04 C-1.21 16.87 -1.2 15.7 -1.19 14.5 C-1.19 13.33 -1.19 12.17 -1.19 10.96 C-1.14 2.28 -1.14 2.28 0 0 Z " fill="#010506" transform="translate(569,681)"/>
<path d="M0 0 C3.49 2.25 5.5 4.15 7 8 C7.3 11.06 7.3 11.06 7.31 14.44 C7.34 16.11 7.34 16.11 7.36 17.81 C6.86 22.25 5.34 24.73 2.12 27.78 C-1.72 29.99 -5.72 29.76 -10 29 C-13.16 26.57 -14.8 24.3 -17 21 C-17.67 15.16 -17.79 9.77 -15.38 4.38 C-10.51 -0.49 -6.71 -1.83 0 0 Z M-9.66 6.69 C-12.08 10.85 -11.77 15.34 -11 20 C-9.55 22.36 -8.28 23.35 -6 25 C-3.08 23.93 -1.22 23.22 1 21 C1.36 17.98 1.36 17.98 1.31 14.56 C1.33 13.41 1.35 12.26 1.36 11.07 C1.25 8.04 1.25 8.04 -0.33 6.12 C-3.54 3.97 -6.92 3.9 -9.66 6.69 Z " fill="#010506" transform="translate(728,681)"/>
<path d="M0 0 C2.44 1.44 2.44 1.44 4 3 C4 3.66 4 4.32 4 5 C4.66 5 5.32 5 6 5 C7.58 12.88 7.88 18.93 4 26 C0.31 29.39 -2.65 29.68 -7.52 29.55 C-11.2 28.73 -12.73 26.85 -14.94 23.92 C-17.84 18.65 -17.62 12.74 -16 7.06 C-15.67 6.05 -15.34 5.04 -15 4 C-14.34 4 -13.68 4 -13 4 C-13 3.34 -13 2.68 -13 2 C-8.24 -0.9 -5.42 -1.4 0 0 Z M-9.38 6.44 C-11.55 9.87 -12.31 12.99 -12 17 C-11.04 19.95 -9.96 21.47 -8 24 C-5.38 25.05 -5.38 25.05 -3 25 C0.65 21.11 1.82 18.34 2 13 C1.52 10.55 0.82 8.37 0 6 C-4.87 4.77 -4.87 4.77 -9.38 6.44 Z " fill="#010506" transform="translate(660,681)"/>
<path d="M0 0 C1.25 0.01 2.5 0.03 3.79 0.04 C5.65 0.05 5.65 0.05 7.56 0.06 C10.85 0.23 10.85 0.23 13.85 1.23 C13.52 2.88 13.19 4.53 12.85 6.23 C7.4 6.73 7.4 6.73 1.85 7.23 C1.52 9.21 1.19 11.19 0.85 13.23 C4.15 13.23 7.45 13.23 10.85 13.23 C10.85 14.55 10.85 15.87 10.85 17.23 C7.55 17.23 4.25 17.23 0.85 17.23 C1.18 19.87 1.51 22.51 1.85 25.23 C3.09 25.21 4.32 25.19 5.6 25.17 C8.51 25.16 11.06 25.3 13.85 26.23 C13.52 27.55 13.19 28.87 12.85 30.23 C10.04 30.26 7.22 30.28 4.41 30.29 C3.61 30.3 2.81 30.31 1.98 30.32 C-0.07 30.33 -2.11 30.28 -4.15 30.23 C-6.85 27.53 -5.34 19.43 -5.34 15.79 C-5.36 13.89 -5.36 13.89 -5.38 11.96 C-5.38 10.75 -5.38 9.54 -5.38 8.3 C-5.39 7.18 -5.39 6.07 -5.4 4.92 C-5.03 0.87 -4 0.29 0 0 Z " fill="#010506" transform="translate(506.15234375,679.76953125)"/>
<path d="M0 0 C2.69 2.44 2.69 2.44 3.56 6.19 C3.6 7.26 3.64 8.33 3.69 9.44 C2.37 9.44 1.05 9.44 -0.31 9.44 C-0.73 8.78 -1.14 8.12 -1.56 7.44 C-2.14 6.78 -2.72 6.12 -3.31 5.44 C-5.95 5.44 -8.59 5.44 -11.31 5.44 C-11.64 10.72 -11.97 16 -12.31 21.44 C-8.46 23.74 -8.46 23.74 -4.31 23.44 C-2.76 22.16 -2.76 22.16 -1.56 20.44 C-0.82 19.45 -0.08 18.46 0.69 17.44 C1.68 17.77 2.67 18.1 3.69 18.44 C3.2 24.93 3.2 24.93 0.98 27.13 C-3.27 29.56 -7.6 29.33 -12.31 28.44 C-15.61 26.76 -17 24.87 -18.31 21.44 C-19.16 15.72 -19.72 9.61 -17.32 4.2 C-12.59 -1.74 -6.85 -3.23 0 0 Z " fill="#010506" transform="translate(550.3125,681.5625)"/>
<path d="M0 0 C1.65 0 3.3 0 5 0 C9 6.62 9 6.62 9 10 C9.99 10 10.98 10 12 10 C12.3 9.36 12.61 8.72 12.92 8.07 C13.34 7.24 13.76 6.41 14.19 5.56 C14.59 4.74 15 3.92 15.42 3.07 C17 1 17 1 19.68 0.21 C20.44 0.14 21.21 0.07 22 0 C21.79 4.89 20.73 7.67 18 11.75 C14.58 17.06 14.02 21.77 14 28 C13.01 28.33 12.02 28.66 11 29 C10.01 28.34 9.02 27.68 8 27 C7.73 24.82 7.73 24.82 7.75 22.12 C7.39 15.85 4.92 11.8 1.5 6.63 C0 4 0 4 0 0 Z " fill="#010506" transform="translate(783,681)"/>
<path d="M0 0 C0.8 -0 1.59 -0 2.41 -0 C3.25 -0 4.08 0 4.94 0.01 C6.19 0 6.19 0 7.46 -0 C8.26 -0 9.05 -0 9.88 0 C10.61 0 11.34 0 12.09 0 C13.94 0.13 13.94 0.13 15.94 1.13 C15.61 2.78 15.28 4.43 14.94 6.13 C12.63 6.46 10.32 6.79 7.94 7.13 C7.61 14.39 7.28 21.65 6.94 29.13 C5.95 29.46 4.96 29.79 3.94 30.13 C3.28 29.8 2.62 29.47 1.94 29.13 C0.64 21.5 0.84 13.85 0.94 6.13 C-1.37 6.13 -3.68 6.13 -6.06 6.13 C-6.06 4.48 -6.06 2.83 -6.06 1.13 C-3.79 -0 -2.52 0 0 0 Z " fill="#010506" transform="translate(472.0625,679.8671875)"/>
<path d="M0 0 C1.65 0 3.3 0 5 0 C5.98 2.94 6.12 4.83 6.1 7.89 C6.09 9.29 6.09 9.29 6.09 10.73 C6.08 11.7 6.07 12.68 6.06 13.69 C6.06 14.68 6.05 15.66 6.05 16.68 C6.04 19.12 6.02 21.56 6 24 C6.61 23.99 7.23 23.98 7.86 23.96 C8.67 23.96 9.48 23.95 10.31 23.94 C11.51 23.92 11.51 23.92 12.74 23.9 C15 24 15 24 18 25 C17.67 26.32 17.34 27.64 17 29 C14.37 29.05 11.75 29.09 9.12 29.12 C8.38 29.14 7.63 29.16 6.86 29.18 C4.91 29.19 2.95 29.1 1 29 C-1 27 -1 27 -1.24 24.62 C-1.24 23.64 -1.23 22.67 -1.23 21.66 C-1.23 20.6 -1.23 19.53 -1.22 18.44 C-1.21 17.33 -1.2 16.21 -1.19 15.06 C-1.19 13.95 -1.19 12.84 -1.19 11.7 C-1.14 3.42 -1.14 3.42 0 0 Z " fill="#010506" transform="translate(681,681)"/>
<path d="M0 0 C2.38 0.69 2.38 0.69 5 2 C6.31 4.62 6.31 4.62 7 7 C6 8 6 8 3 8.12 C0 8 0 8 -1 7 C-1.12 4 -1.12 4 -1 1 C-0.67 0.67 -0.34 0.34 0 0 Z " fill="#010506" transform="translate(351,648)"/>
</svg>
